<?xml version="1.0" encoding="utf-8"?>
<!-- Generator: Adobe Illustrator 25.1.0, SVG Export Plug-In . SVG Version: 6.00 Build 0)  -->
<svg version="1.1" id="Layer_1" xmlns="http://www.w3.org/2000/svg" xmlns:xlink="http://www.w3.org/1999/xlink" x="0px" y="0px"
	 viewBox="0 0 128 128" style="enable-background:new 0 0 128 128;" xml:space="preserve">
<style type="text/css">
	.st0{fill:#A2A2A2;}
</style>
<g>
	<path class="st0" d="M109.4,100.6L70,61.3c4.4-2.8,9.6-4.4,15.2-4.4c0,0,0.4,0,0.4,0c7.9,0.1,15,3.4,20.1,8.7
		c5.1,5.3,8.2,12.5,8.1,20.4C113.8,91.3,112.1,96.3,109.4,100.6z M64.7,105.4c-5.1-5.3-8.2-12.5-8.1-20.4c0.1-5.4,1.7-10.5,4.5-14.8
		l39.4,39.4c-4.4,2.8-9.6,4.4-15.2,4.4c0,0-0.4,0-0.4,0C76.9,114,69.8,110.7,64.7,105.4z M56.9,113c7,7.2,16.9,11.8,27.7,11.9
		c0,0,0.5,0,0.5,0c8.6,0,16.4-2.9,22.9-7.5l7.1,7.1c1.2,1.2,2.9,1.9,4.5,1.9s3.3-0.6,4.5-1.9c1.2-1.2,1.9-2.9,1.9-4.5
		s-0.6-3.3-1.9-4.5l-7.1-7.1c4.6-6.3,7.4-14,7.5-22.4c0.1-10.9-4.2-20.8-11.2-28c-7-7.2-16.9-11.8-27.7-11.9c0,0-0.5,0-0.5,0
		c-8.6,0-16.4,2.9-22.9,7.5l-7.1-7.1c-1.2-1.2-2.9-1.9-4.5-1.9s-3.3,0.6-4.5,1.9s-1.9,2.9-1.9,4.5c0,1.6,0.6,3.3,1.9,4.5l7,7
		c-4.6,6.3-7.4,14-7.5,22.4C45.6,95.8,49.9,105.8,56.9,113z"/>
	<path class="st0" d="M122.7,116.8l-8.3-8.3c4.9-6.3,8.1-14,8.2-22.6c0.3-20.7-16.3-37.7-37-37.9l-0.5,0c-8.7,0-16.7,3.1-23.1,8.2
		l-8.3-8.3c-1.7-1.7-4.5-1.7-6.2,0c-1.7,1.7-1.7,4.5,0,6.2l8.3,8.3c-4.9,6.3-8.1,14-8.2,22.6c-0.3,20.7,16.3,37.7,37,37.9l0.5,0
		c8.7,0,16.7-3.1,23.1-8.2l8.3,8.3c0.9,0.9,2,1.3,3.1,1.3c1.1,0,2.2-0.4,3.1-1.3C124.5,121.3,124.5,118.6,122.7,116.8z M85.2,54.8
		l0.4,0c16.9,0.2,30.5,14.1,30.2,31c-0.1,6.7-2.4,12.9-6.2,17.9L66.9,61C72,57.1,78.3,54.8,85.2,54.8z M85.2,116.1l-0.4,0
		c-16.9-0.2-30.5-14.1-30.2-31c0.1-6.7,2.4-12.9,6.2-17.9l42.8,42.8C98.4,113.8,92,116.1,85.2,116.1z"/>
</g>
</svg>
