<?xml version="1.0" encoding="utf-8"?>
<!-- Generator: Adobe Illustrator 25.0.1, SVG Export Plug-In . SVG Version: 6.00 Build 0)  -->
<svg version="1.1" id="Layer_1" xmlns="http://www.w3.org/2000/svg" xmlns:xlink="http://www.w3.org/1999/xlink" x="0px" y="0px"
	 viewBox="0 0 512 512" style="enable-background:new 0 0 512 512;" xml:space="preserve">
<style type="text/css">
	.st0{opacity:0.7;fill:#FFFFFF;stroke:#4D4D4D;stroke-width:29;stroke-miterlimit:10;}
	.st1{fill:#4D4D4D;}
</style>
<path class="st0" d="M135.3,469.5h251.3c48.5,0,87.8-39.3,87.8-87.8V130.3c0-48.5-39.3-87.8-87.8-87.8H135.3
	c-48.5,0-87.8,39.3-87.8,87.8v251.3C47.4,430.2,86.7,469.5,135.3,469.5z"/>
<g>
	<path class="st1" d="M179.9,238.8l-22-21.9c-4-3.4-10.1-3-13.5,1c-3.1,3.6-3.1,8.9,0,12.5l21.9,22l-21.9,22c-4,3.4-4.5,9.5-1,13.5
		c3.4,4,9.5,4.5,13.5,1c0.4-0.3,0.7-0.7,1-1l22-21.9l22,21.9c4,3.4,10.1,3,13.5-1c3.1-3.6,3.1-8.9,0-12.5l-21.9-22l21.9-22
		c3.4-4,3-10.1-1-13.5c-3.6-3.1-8.9-3.1-12.5,0L179.9,238.8z"/>
	<path class="st1" d="M297.7,287.8c3.7,3.7,9.8,3.7,13.5,0l22-21.9l22,21.9c4,3.4,10.1,3,13.5-1c3.1-3.6,3.1-8.9,0-12.5l-21.9-22
		l21.9-22c3.4-4,3-10.1-1-13.5c-3.6-3.1-8.9-3.1-12.5,0l-22,21.9l-22-21.9c-4-3.4-10.1-3-13.5,1c-3.1,3.6-3.1,8.9,0,12.5l21.9,22
		l-21.9,22C294,278.1,294,284.1,297.7,287.8z"/>
	<path class="st1" d="M342.8,357.8H170.3c-5.3,0-9.6,4.3-9.6,9.6s4.3,9.6,9.6,9.6h172.5c5.3,0,9.6-4.3,9.6-9.6
		S348.1,357.8,342.8,357.8z"/>
</g>
</svg>
