<?xml version="1.0" encoding="UTF-8"?>
<svg id="Layer_1" xmlns="http://www.w3.org/2000/svg" version="1.1" viewBox="0 0 128 128">
  <!-- Generator: Adobe Illustrator 29.8.3, SVG Export Plug-In . SVG Version: 2.1.1 Build 3)  -->
  <defs>
    <style>
      .st0 {
        fill: #a2a2a2;
      }
    </style>
  </defs>
  <path class="st0" d="M120.22,107.24l-10.23-10.23c6.63-9.08,10.67-20.18,10.81-32.29.14-15.71-6.05-29.98-16.14-40.36-10.09-10.38-24.36-17.01-39.93-17.15h-.72c-12.4,0-23.64,4.18-33.01,10.81l-10.23-10.23c-1.73-1.73-4.18-2.74-6.49-2.74s-4.76.86-6.49,2.74-2.74,4.18-2.74,6.49.86,4.76,2.74,6.49l10.09,10.09c-6.63,9.08-10.67,20.18-10.81,32.29,0,15.71,6.2,30.13,16.29,40.5,10.09,10.38,24.36,17.01,39.93,17.15h.72c12.4,0,23.64-4.18,33.01-10.81l10.23,10.23c1.73,1.73,4.18,2.74,6.49,2.74s4.72-.9,6.49-2.74,2.74-4.18,2.74-6.49-.86-4.76-2.74-6.49ZM64.29,105.08h-.58c-11.53,0-21.77-4.76-29.12-12.4s-11.82-18.02-11.68-29.41c.14-7.78,2.45-15.14,6.49-21.33l56.79,56.79c-6.34,4.04-13.84,6.34-21.91,6.34ZM105.37,64.72c0,7.64-2.45,14.85-6.34,21.05L42.23,29.12c6.34-4.04,13.84-6.34,21.91-6.34h.58c11.39.14,21.62,4.9,28.97,12.54s11.82,18.02,11.68,29.41Z"/>
</svg>