<svg height="384pt" viewBox="0 0 384 384" width="384pt" xmlns="http://www.w3.org/2000/svg"><path d="m144 361.519531c15.28125 4.320313 31.359375 6.640625 48 6.640625 97.199219 0 176-78.800781 176-176 0-97.199218-78.800781-176-176-176-16.640625 0-32.71875 2.320313-48 6.640625 73.839844 20.878907 128 88.800781 128 169.359375s-54.160156 148.480469-128 169.359375zm0 0" fill="#cce4ff"/><path d="m139.648438 376.761719c.03125.007812.070312.015625.105468.023437l4.246094 1.207032.304688-.089844c15.558593 3.976562 31.566406 6.097656 47.695312 6.097656 105.863281 0 192-86.128906 192-192s-86.136719-192-192-192c-16.128906 0-32.128906 2.121094-47.6875 6.105469l-.3125-.097657-4.351562 1.230469c-82.222657 23.257813-139.648438 99.226563-139.648438 184.761719 0 26.726562 5.609375 52.527344 15.824219 76.070312 22.488281 51.800782 67.296875 92.707032 123.824219 108.691407zm212.351562-184.761719c0 84.601562-66.046875 153.894531-149.265625 159.457031 52.035156-35.007812 85.265625-94.433593 85.265625-159.457031s-33.230469-124.449219-85.265625-159.457031c83.21875 5.5625 149.265625 74.855469 149.265625 159.457031zm-319.449219-13.128906c.121094-1.464844.378907-2.886719.539063-4.34375.316406-2.855469.605468-5.71875 1.070312-8.542969.289063-1.746094.71875-3.441406 1.0625-5.167969.496094-2.488281.953125-4.984375 1.5625-7.433594.453125-1.816406 1.039063-3.574218 1.558594-5.367187.664062-2.304687 1.28125-4.632813 2.046875-6.894531.617187-1.816406 1.351563-3.578125 2.035156-5.367188.820313-2.1875 1.605469-4.386718 2.519531-6.523437.757813-1.78125 1.648438-3.503907 2.46875-5.246094.976563-2.074219 1.921876-4.160156 2.984376-6.183594.914062-1.738281 1.9375-3.417969 2.914062-5.121093 1.121094-1.953126 2.207031-3.925782 3.40625-5.832032 1.058594-1.679687 2.21875-3.289062 3.335938-4.925781 1.257812-1.84375 2.480468-3.699219 3.808593-5.480469 1.199219-1.609375 2.488281-3.136718 3.738281-4.699218 1.382813-1.71875 2.742188-3.453126 4.199219-5.117188 1.320313-1.511719 2.726563-2.953125 4.109375-4.417969 1.515625-1.597656 3-3.222656 4.578125-4.757812 1.449219-1.410157 2.960938-2.746094 4.464844-4.105469 1.632813-1.480469 3.246094-2.96875 4.933594-4.382812 1.554687-1.296876 3.175781-2.511719 4.785156-3.753907 1.753906-1.351562 3.488281-2.710937 5.296875-3.984375 1.65625-1.175781 3.375-2.261718 5.085938-3.375 1.855468-1.207031 3.714843-2.433594 5.625-3.566406 1.761718-1.042969 3.566406-2.007812 5.367187-2.984375 1.960937-1.066406 3.921875-2.136719 5.9375-3.121094 1.847656-.902343 3.742187-1.726562 5.632813-2.558593 2.0625-.914063 4.125-1.816407 6.230468-2.640626 1.929688-.753906 3.90625-1.433593 5.871094-2.113281 1.480469-.511719 2.976562-1 4.480469-1.472656 66.058593 20.847656 111.800781 82.914063 111.800781 152.609375s-45.742188 131.769531-111.816406 152.601562c-1.464844-.457031-2.910156-.9375-4.351563-1.433593-2.023437-.695313-4.046875-1.390625-6.03125-2.167969-2.058593-.808594-4.074219-1.6875-6.082031-2.574219-1.933594-.859375-3.878906-1.699219-5.773438-2.625-1.96875-.96875-3.890624-2.007812-5.816406-3.046875-1.839844-1-3.6875-1.984375-5.488281-3.050781-1.878906-1.109375-3.695313-2.3125-5.519531-3.503906-1.738282-1.128907-3.488282-2.246094-5.175782-3.4375-1.785156-1.265625-3.496093-2.601563-5.226562-3.9375-1.621094-1.257813-3.269531-2.488281-4.847656-3.808594-1.671875-1.398437-3.269532-2.871094-4.886719-4.335937-1.511719-1.367188-3.046875-2.71875-4.503906-4.144532-1.558594-1.527344-3.039063-3.136718-4.542969-4.71875-1.394531-1.480468-2.816406-2.929687-4.144531-4.457031-1.449219-1.65625-2.792969-3.375-4.167969-5.085937-1.265625-1.570313-2.5625-3.113282-3.761719-4.722657-1.328125-1.78125-2.550781-3.628906-3.800781-5.472656-1.117188-1.636719-2.277344-3.253906-3.34375-4.933594-1.199219-1.90625-2.285156-3.878906-3.40625-5.832031-.976562-1.703125-2-3.375-2.914062-5.121094-1.0625-2.023437-2-4.113281-2.984376-6.183594-.820312-1.75-1.710937-3.472656-2.46875-5.246093-.921874-2.136719-1.699218-4.335938-2.519531-6.523438-.683593-1.789062-1.417969-3.550781-2.035156-5.367187-.765625-2.261719-1.382813-4.589844-2.046875-6.894532-.519531-1.792968-1.105469-3.550781-1.558594-5.367187-.617187-2.449219-1.066406-4.953125-1.5625-7.433594-.34375-1.726562-.773437-3.421875-1.0625-5.167969-.472656-2.816406-.753906-5.6875-1.070312-8.542968-.160156-1.449219-.417969-2.878906-.539063-4.34375-.359375-4.335938-.550781-8.714844-.550781-13.121094s.191406-8.785156.550781-13.128906zm0 0" fill="#007aff"/></svg>