<?xml version="1.0" encoding="UTF-8"?>
<svg xmlns="http://www.w3.org/2000/svg" version="1.1" xmlns:cc="http://creativecommons.org/ns#" xmlns:dc="http://purl.org/dc/elements/1.1/" xmlns:inkscape="http://www.inkscape.org/namespaces/inkscape" xmlns:rdf="http://www.w3.org/1999/02/22-rdf-syntax-ns#" xmlns:sodipodi="http://sodipodi.sourceforge.net/DTD/sodipodi-0.dtd" xmlns:svg="http://www.w3.org/2000/svg" viewBox="0 0 128 128">
  <!-- Generator: Adobe Illustrator 29.8.3, SVG Export Plug-In . SVG Version: 2.1.1 Build 3)  -->
  <defs>
    <style>
      .st0 {
        fill: #f1c21b;
      }

      .st1 {
        fill: #fff;
      }
    </style>
  </defs>
  <g id="svg8" inkscape:version="0.92.5 (2060ec1f9f, 2020-04-08)">
    <path class="st0" d="M121.89,106.68L67.96,13.26c-.8-1.39-2.29-2.25-3.89-2.25s-3.09.86-3.89,2.24L6.14,106.68c-.8,1.39-.81,3.1,0,4.5.8,1.39,2.29,2.25,3.89,2.25h107.96c1.61,0,3.09-.86,3.89-2.25.8-1.39.8-3.1,0-4.5Z"/>
    <g>
      <path class="st1" d="M63.98,82.77c3.41,0,6.18-2.77,6.18-6.18v-35.92c0-3.41-2.77-6.18-6.18-6.18s-6.18,2.77-6.18,6.18v35.92c0,3.41,2.77,6.18,6.18,6.18Z"/>
      <path class="st1" d="M63.98,85.33c-4.34,0-7.87,3.53-7.87,7.87s3.53,7.87,7.87,7.87,7.87-3.53,7.87-7.87-3.53-7.87-7.87-7.87Z"/>
    </g>
  </g>
</svg>